<?xml version="1.0" standalone="no"?>
<!DOCTYPE svg PUBLIC "-//W3C//DTD SVG 20010904//EN"
 "http://www.w3.org/TR/2001/REC-SVG-20010904/DTD/svg10.dtd">
<svg version="1.0" xmlns="http://www.w3.org/2000/svg"
 width="1280.000000pt" height="640.000000pt" viewBox="0 0 1280.000000 640.000000"
 preserveAspectRatio="xMidYMid meet">
<g transform="translate(0.000000,640.000000) scale(0.100000,-0.100000)"
fill="#000000" stroke="none">
<path d="M4875 5245 c-190 -34 -375 -106 -732 -283 -284 -141 -473 -211 -622
-233 -55 -8 -140 -10 -240 -6 -254 10 -359 37 -1086 277 -459 152 -628 184
-960 184 -184 0 -208 -2 -296 -26 -213 -58 -351 -137 -495 -282 -194 -198
-329 -461 -363 -712 -28 -197 -23 -465 14 -891 8 -89 12 -169 9 -177 -7 -18
-55 -21 -71 -5 -27 27 -44 -24 -24 -73 5 -13 12 -31 15 -41 6 -18 7 -17 32 2
20 16 31 18 45 10 10 -5 19 -11 19 -13 0 -27 77 -599 95 -705 83 -493 266
-803 592 -1003 46 -28 85 -59 88 -70 12 -35 101 -66 138 -46 15 8 90 12 237
13 416 2 645 68 1135 326 127 66 300 163 385 214 426 254 496 282 699 272 121
-5 277 -40 545 -121 248 -75 470 -104 658 -86 207 20 355 70 427 144 27 28 35
45 39 84 8 86 -29 105 -238 123 -183 15 -298 43 -423 105 -215 107 -349 283
-372 491 -11 97 13 162 84 233 95 96 86 93 563 150 233 27 630 75 883 105 835
99 1641 195 2275 270 344 41 857 101 1140 135 283 34 569 67 635 75 66 8 253
30 415 50 338 40 414 43 442 18 18 -16 22 -16 47 -2 18 11 45 15 82 12 30 -2
173 -10 319 -18 310 -18 533 -40 980 -96 186 -23 344 -39 370 -36 25 3 92 28
150 55 58 28 139 62 180 76 89 32 105 40 96 54 -3 5 -59 33 -123 62 -65 30
-121 57 -124 63 -4 5 3 27 13 49 32 66 -1 106 -98 122 -46 8 -55 1 -74 -57
-11 -35 -15 -38 -38 -32 -48 12 -53 22 -31 72 17 41 18 48 5 68 -19 29 -75 55
-120 55 -32 0 -37 -4 -55 -45 -21 -49 -27 -51 -66 -33 -28 13 -29 24 -4 86 13
31 12 34 -18 64 -26 26 -42 32 -87 36 l-54 4 -13 -42 c-15 -49 -28 -57 -70
-40 -33 14 -34 23 -8 88 13 31 12 34 -18 64 -26 26 -42 32 -87 36 l-54 4 -13
-42 c-15 -49 -28 -57 -69 -40 -34 14 -36 24 -14 80 16 38 15 42 -2 61 -29 32
-69 49 -113 49 -38 0 -41 -2 -60 -45 -21 -49 -27 -51 -66 -33 -28 13 -28 18
-1 80 14 34 14 37 -4 61 -26 32 -69 49 -116 45 -36 -3 -40 -6 -54 -45 -16 -49
-42 -56 -80 -25 l-22 18 21 43 c21 40 21 44 7 67 -23 34 -71 56 -118 52 -38
-3 -42 -6 -57 -45 -17 -49 -32 -53 -91 -23 -59 30 -78 26 -96 -17 -37 -91 -73
-151 -122 -205 -42 -45 -65 -61 -105 -73 -98 -29 -41 -24 -2117 -185 -361 -28
-1103 -85 -2445 -190 -280 -22 -605 -47 -721 -56 l-210 -16 -65 27 c-187 79
-259 176 -259 349 0 142 44 231 162 326 142 114 331 191 578 235 80 14 170 34
200 45 67 24 163 29 186 9 14 -11 18 -11 30 6 8 10 14 39 14 63 0 43 -1 44
-27 39 -36 -7 -96 26 -144 78 -60 65 -177 111 -344 135 -97 13 -365 11 -450
-5z"/>
</g>
</svg>
