<?xml version="1.0" encoding="utf-8"?>
<!-- Generator: Adobe Illustrator 17.1.0, SVG Export Plug-In . SVG Version: 6.00 Build 0)  -->
<!DOCTYPE svg PUBLIC "-//W3C//DTD SVG 1.1//EN" "http://www.w3.org/Graphics/SVG/1.1/DTD/svg11.dtd">
<svg version="1.1" id="Group_15369" xmlns="http://www.w3.org/2000/svg" xmlns:xlink="http://www.w3.org/1999/xlink" x="0px"
	 y="0px" viewBox="0 0 31 29" enable-background="new 0 0 31 29" xml:space="preserve">
<g>
	<defs>
		<rect id="SVGID_1_" x="0" y="0" width="31" height="29"/>
	</defs>
	<clipPath id="SVGID_2_">
		<use xlink:href="#SVGID_1_"  overflow="visible"/>
	</clipPath>
	<g id="Group_15369-2" clip-path="url(#SVGID_2_)">
		<path id="Path_69408" fill="#FFFFFF" d="M28.4,25.4c-3.3-4.4-6.6-8.7-9.8-13.1L30.1,0h-2.9l-9.9,10.6c-2.7-3.5-5.3-7.1-8-10.6H0.4
			l7.5,10.2c1.4,1.9,2.8,3.9,4.3,5.8c-1.4,1.5-2.8,3-4.3,4.5c-1.5,1.6-3.1,3.3-4.6,4.9C2.2,26.6,1.1,27.8,0,29h2.9
			c1.1-1.2,2.2-2.4,3.3-3.5c2.4-2.6,4.8-5.1,7.2-7.7c1.9,2.6,3.8,5.1,5.7,7.7c0.9,1.2,1.7,2.4,2.6,3.5H31
			C30.1,27.8,29.2,26.6,28.4,25.4 M22.8,26.9l-7.9-10.7l-1.3-1.7L4.5,2.1h3.8l3.2,4.3c1.5,1.9,2.9,3.9,4.4,5.8l1.3,1.7
			c3.2,4.3,6.4,8.6,9.6,12.8l0.2,0.2L22.8,26.9z"/>
	</g>
</g>
</svg>
